<svg xmlns="http://www.w3.org/2000/svg" viewBox="0 0 32 32" width="32" height="32"><rect width="32" height="32" rx="7" fill="#08465A"/><path d="M13.72 26.5Q11.71 26.5 10.14 25.83Q8.57 25.16 7.67 23.81Q6.76 22.46 6.76 20.45Q6.76 18.74 7.4 17.6Q8.03 16.46 9.13 15.76Q10.23 15.06 11.66 14.7Q13.09 14.33 14.66 14.2Q16.52 14.01 17.61 13.83Q18.7 13.66 19.18 13.34Q19.66 13.01 19.66 12.36V12.23Q19.66 11.48 19.26 10.91Q18.85 10.35 18.12 10.02Q17.38 9.7 16.34 9.7Q15.31 9.7 14.52 10.02Q13.72 10.35 13.26 10.94Q12.8 11.54 12.72 12.32H7.42Q7.55 10.23 8.65 8.7Q9.75 7.17 11.75 6.33Q13.74 5.5 16.52 5.5Q18.59 5.5 20.22 5.97Q21.84 6.44 22.96 7.34Q24.09 8.24 24.66 9.52Q25.24 10.81 25.24 12.44V26.16H19.72V23.3H19.64Q19.1 24.3 18.32 25.01Q17.53 25.71 16.4 26.11Q15.27 26.5 13.72 26.5ZM15.29 22.57Q16.65 22.57 17.64 22.07Q18.62 21.58 19.16 20.71Q19.7 19.85 19.7 18.76V16.73Q19.45 16.86 19.05 16.99Q18.64 17.11 18.11 17.22Q17.57 17.32 16.94 17.44Q16.31 17.55 15.64 17.65Q14.66 17.8 13.87 18.12Q13.09 18.43 12.63 18.96Q12.17 19.49 12.17 20.29Q12.17 21 12.55 21.52Q12.93 22.04 13.64 22.3Q14.35 22.57 15.29 22.57Z" fill="#FF9F1C"/></svg>