<svg xmlns="http://www.w3.org/2000/svg" viewBox="126.33 13.26 642.86 133.48" width="643" height="133" role="img" aria-label="Datanime"><style>@keyframes dataF{0.000%{opacity:0;transform:translateY(10px);animation-timing-function:cubic-bezier(.22,1,.36,1)}20.588%{opacity:1;transform:translateY(0)}100.000%{opacity:1;transform:translateY(0)}}@keyframes dataX{0.000%{transform:translateX(-53.67px)}45.588%{transform:translateX(-53.67px);animation-timing-function:cubic-bezier(.65,0,.35,1)}67.647%{transform:translateX(0)}100.000%{transform:translateX(0)}}@keyframes animeF{0.000%{opacity:0}19.118%{opacity:0;animation-timing-function:cubic-bezier(.22,1,.36,1)}36.765%{opacity:1}100.000%{opacity:1}}@keyframes animeX{0.000%{transform:translateX(133.67px)}19.118%{transform:translateX(133.67px);animation-timing-function:cubic-bezier(.22,1,.36,1)}39.706%{transform:translateX(53.67px)}45.588%{transform:translateX(53.67px);animation-timing-function:cubic-bezier(.65,0,.35,1)}67.647%{transform:translateX(0)}100.000%{transform:translateX(0)}}@keyframes a1{0.000%{fill:#FFFFFF}41.176%{fill:#FFFFFF;animation-timing-function:cubic-bezier(.65,0,.35,1)}51.471%{fill:#FFD000}100.000%{fill:#FFD000}}@keyframes a2{0.000%{fill:#3FA7C4;opacity:1}41.176%{fill:#3FA7C4;opacity:1;animation-timing-function:cubic-bezier(.65,0,.35,1)}51.471%{fill:#FFD000;opacity:1}67.647%{fill:#FFD000;opacity:1;animation-timing-function:steps(1,end)}67.941%{fill:#FFD000;opacity:0}100.000%{fill:#FFD000;opacity:0}}@keyframes eye{0.000%{transform:translate(414.692px,77.847px) rotate(0.000deg) scale(22.0938,35.0000);animation-timing-function:linear}70.588%{transform:translate(414.692px,77.847px) rotate(0.000deg) scale(22.0938,35.0000);animation-timing-function:linear}71.324%{transform:translate(414.692px,77.847px) rotate(0.008deg) scale(22.0929,34.9975);animation-timing-function:linear}72.059%{transform:translate(414.691px,77.848px) rotate(0.062deg) scale(22.0869,34.9799);animation-timing-function:linear}72.794%{transform:translate(414.690px,77.850px) rotate(0.208deg) scale(22.0705,34.9323);animation-timing-function:linear}73.529%{transform:translate(414.687px,77.855px) rotate(0.494deg) scale(22.0387,34.8395);animation-timing-function:linear}74.265%{transform:translate(414.682px,77.863px) rotate(0.965deg) scale(21.9863,34.6869);animation-timing-function:linear}75.000%{transform:translate(414.675px,77.875px) rotate(1.667deg) scale(21.9083,34.4599);animation-timing-function:linear}75.735%{transform:translate(414.665px,77.892px) rotate(2.647deg) scale(21.7998,34.1445);animation-timing-function:linear}76.471%{transform:translate(414.651px,77.915px) rotate(3.951deg) scale(21.6561,33.7275);animation-timing-function:linear}77.206%{transform:translate(414.634px,77.944px) rotate(5.625deg) scale(21.4731,33.1970);animation-timing-function:linear}77.941%{transform:translate(414.612px,77.980px) rotate(7.716deg) scale(21.2477,32.5432);animation-timing-function:linear}78.676%{transform:translate(414.586px,78.024px) rotate(10.270deg) scale(20.9779,31.7592);animation-timing-function:linear}79.412%{transform:translate(414.554px,78.076px) rotate(13.333deg) scale(20.6644,30.8426);animation-timing-function:linear}80.147%{transform:translate(414.517px,78.139px) rotate(16.952deg) scale(20.3111,29.7966);animation-timing-function:linear}80.882%{transform:translate(414.473px,78.211px) rotate(21.173deg) scale(19.9267,28.6316);animation-timing-function:linear}81.618%{transform:translate(414.423px,78.295px) rotate(26.042deg) scale(19.5262,27.3668);animation-timing-function:linear}82.353%{transform:translate(414.365px,78.391px) rotate(31.605deg) scale(19.1321,26.0294);animation-timing-function:linear}83.088%{transform:translate(414.300px,78.499px) rotate(37.909deg) scale(18.7749,24.6534);animation-timing-function:linear}83.824%{transform:translate(414.227px,78.622px) rotate(45.000deg) scale(18.4922,23.2740);animation-timing-function:linear}84.559%{transform:translate(414.154px,78.744px) rotate(52.091deg) scale(18.3347,22.0522);animation-timing-function:linear}85.294%{transform:translate(414.089px,78.852px) rotate(58.395deg) scale(18.2934,21.0738);animation-timing-function:linear}86.029%{transform:translate(414.031px,78.948px) rotate(63.958deg) scale(18.3256,20.2730);animation-timing-function:linear}86.765%{transform:translate(413.981px,79.032px) rotate(68.827deg) scale(18.3989,19.6045);animation-timing-function:linear}87.500%{transform:translate(413.937px,79.104px) rotate(73.048deg) scale(18.4904,19.0385);animation-timing-function:linear}88.235%{transform:translate(413.900px,79.167px) rotate(76.667deg) scale(18.5850,18.5562);animation-timing-function:linear}88.971%{transform:translate(413.868px,79.219px) rotate(79.730deg) scale(18.6740,18.1461);animation-timing-function:linear}89.706%{transform:translate(413.842px,79.263px) rotate(82.284deg) scale(18.7526,17.8006);animation-timing-function:linear}90.441%{transform:translate(413.820px,79.299px) rotate(84.375deg) scale(18.8189,17.5140);animation-timing-function:linear}91.176%{transform:translate(413.803px,79.328px) rotate(86.049deg) scale(18.8728,17.2815);animation-timing-function:linear}91.912%{transform:translate(413.790px,79.351px) rotate(87.353deg) scale(18.9149,17.0983);animation-timing-function:linear}92.647%{transform:translate(413.779px,79.368px) rotate(88.333deg) scale(18.9465,16.9593);animation-timing-function:linear}93.382%{transform:translate(413.772px,79.380px) rotate(89.035deg) scale(18.9691,16.8590);animation-timing-function:linear}94.118%{transform:translate(413.767px,79.388px) rotate(89.506deg) scale(18.9842,16.7913);animation-timing-function:linear}94.853%{transform:translate(413.764px,79.393px) rotate(89.792deg) scale(18.9933,16.7501);animation-timing-function:linear}95.588%{transform:translate(413.763px,79.395px) rotate(89.938deg) scale(18.9980,16.7289);animation-timing-function:linear}96.324%{transform:translate(413.762px,79.396px) rotate(89.992deg) scale(18.9998,16.7211);animation-timing-function:linear}97.059%{transform:translate(413.762px,79.396px) rotate(90.000deg) scale(19.0000,16.7200);animation-timing-function:linear}100.000%{transform:translate(413.762px,79.396px) rotate(90.000deg) scale(19.0000,16.7200)}}.dataF{animation:dataF 3.4s linear both}.dataX{animation:dataX 3.4s linear both}.animeF{animation:animeF 3.4s linear both}.animeX{animation:animeX 3.4s linear both}.a1{fill:#FFD000;animation:a1 3.4s linear both}.a2{fill:#FFD000;opacity:0;animation:a2 3.4s linear both}.eye{transform:translate(413.762px,79.396px) rotate(90.000deg) scale(19.0000,16.7200);animation:eye 3.4s linear both}@media (prefers-reduced-motion:reduce){.dataF,.dataX,.animeF,.animeX,.a1,.a2,.eye{animation:none}}</style><defs><mask id="eye1dark" maskUnits="userSpaceOnUse" x="-73.7" y="13.3" width="1042.9" height="133.5"><rect x="-73.7" y="13.3" width="1042.9" height="133.5" fill="#fff"/><path d="M-0.43000 0.33333L-0.44299 0.33271L-0.45395 0.33083L-0.46288 0.32770L-0.46979 0.32332L-0.47467 0.31768L-0.47753 0.31079L-0.47836 0.30265L-0.47716 0.29326L-0.47394 0.28262L-0.46870 0.27072L-0.03130 -0.60406L-0.02504 -0.61533L-0.01878 -0.62409L-0.01252 -0.63035L-0.00626 -0.63411L0.00000 -0.63536L0.00626 -0.63411L0.01252 -0.63035L0.01878 -0.62409L0.02504 -0.61533L0.03130 -0.60406L0.46870 0.27072L0.47394 0.28262L0.47716 0.29326L0.47836 0.30265L0.47753 0.31079L0.47467 0.31768L0.46979 0.32332L0.46288 0.32770L0.45395 0.33083L0.44299 0.33271L0.43000 0.33333Z" fill="#000" class="eye"/></mask><mask id="eye2dark" maskUnits="userSpaceOnUse" x="-73.7" y="13.3" width="1042.9" height="133.5"><rect x="-73.7" y="13.3" width="1042.9" height="133.5" fill="#fff"/><path d="M-0.43000 0.33333L-0.44299 0.33271L-0.45395 0.33083L-0.46288 0.32770L-0.46979 0.32332L-0.47467 0.31768L-0.47753 0.31079L-0.47836 0.30265L-0.47716 0.29326L-0.47394 0.28262L-0.46870 0.27072L-0.03130 -0.60406L-0.02504 -0.61533L-0.01878 -0.62409L-0.01252 -0.63035L-0.00626 -0.63411L0.00000 -0.63536L0.00626 -0.63411L0.01252 -0.63035L0.01878 -0.62409L0.02504 -0.61533L0.03130 -0.60406L0.46870 0.27072L0.47394 0.28262L0.47716 0.29326L0.47836 0.30265L0.47753 0.31079L0.47467 0.31768L0.46979 0.32332L0.46288 0.32770L0.45395 0.33083L0.44299 0.33271L0.43000 0.33333Z" fill="#000" style="transform:translate(414.692px,77.847px) rotate(0.000deg) scale(22.0938,35.0000)"/></mask></defs><g class="dataF"><g class="dataX"><path d="M234.84 120.74H213.78V106.58H233.96Q242.16 106.58 247.52 103.49Q252.88 100.4 255.51 94.46Q258.13 88.53 258.13 79.95Q258.13 71.36 255.51 65.45Q252.88 59.55 247.55 56.48Q242.22 53.42 234.12 53.42H213.4V39.26H235.16Q247.41 39.26 256.38 44.21Q265.35 49.16 270.22 58.29Q275.09 67.42 275.09 79.95Q275.09 92.47 270.22 101.63Q265.35 110.79 256.36 115.77Q247.36 120.74 234.84 120.74ZM222.91 39.26V120.74H206.07V39.26Z" fill="#FFFFFF"/><path d="M299.08 121.73Q293.34 121.73 288.86 119.81Q284.37 117.9 281.8 114.04Q279.23 110.19 279.23 104.45Q279.23 99.58 281.04 96.32Q282.84 93.07 285.99 91.07Q289.13 89.08 293.2 88.04Q297.28 87 301.76 86.62Q307.07 86.07 310.18 85.58Q313.3 85.09 314.67 84.16Q316.04 83.23 316.04 81.37V80.98Q316.04 78.85 314.89 77.24Q313.74 75.62 311.63 74.7Q309.53 73.77 306.57 73.77Q303.62 73.77 301.35 74.7Q299.08 75.62 297.77 77.32Q296.46 79.02 296.24 81.26H281.09Q281.47 75.3 284.62 70.92Q287.76 66.55 293.45 64.17Q299.14 61.79 307.07 61.79Q312.97 61.79 317.62 63.13Q322.27 64.47 325.47 67.04Q328.67 69.61 330.31 73.27Q331.95 76.94 331.95 81.59V120.74H316.2V112.59H315.98Q314.45 115.44 312.21 117.46Q309.97 119.48 306.74 120.61Q303.51 121.73 299.08 121.73ZM303.57 110.52Q307.45 110.52 310.27 109.09Q313.08 107.67 314.61 105.21Q316.15 102.75 316.15 99.63V93.84Q315.43 94.22 314.29 94.57Q313.14 94.93 311.61 95.23Q310.07 95.53 308.27 95.86Q306.47 96.19 304.55 96.46Q301.76 96.9 299.52 97.8Q297.28 98.7 295.97 100.21Q294.65 101.71 294.65 104.01Q294.65 106.03 295.75 107.51Q296.84 108.98 298.86 109.75Q300.89 110.52 303.57 110.52Z" fill="#FFFFFF"/><path d="M373.72 62.99V75.62H335.82V62.99ZM345.77 47.24H361.85V102.91Q361.85 105.81 363.06 106.96Q364.26 108.11 367.54 108.11Q368.91 108.11 370.79 108.11Q372.68 108.11 373.72 108.11V120.74Q372.24 120.74 369.62 120.74Q366.99 120.74 364.31 120.74Q354.8 120.74 350.29 117.02Q345.77 113.3 345.77 105.43Z" fill="#FFFFFF"/><path class="a1" d="M375.32 120.74L403.92 39.26L425.57 39.26L454.18 120.74L435.53 120.74L429.79 102.97L399.41 102.97L393.47 120.74Z" mask="url(#eye1dark)"/></g></g><g class="animeF"><g class="animeX"><path class="a2" d="M375.32 120.74L403.92 39.26L425.57 39.26L454.18 120.74L435.53 120.74L429.79 102.97L399.41 102.97L393.47 120.74Z" mask="url(#eye2dark)"/><path d="M473.74 88.64V120.74H457.61V62.99H473.47V78.03H470.74Q473.47 70.38 478.56 66.08Q483.64 61.79 491.52 61.79Q497.7 61.79 502.24 64.44Q506.77 67.09 509.26 72.18Q511.75 77.27 511.75 84.59V120.74H495.67V87.55Q495.67 81.7 492.91 78.69Q490.15 75.68 485.06 75.68Q481.73 75.68 479.16 77.05Q476.59 78.41 475.16 81.29Q473.74 84.16 473.74 88.64Z" fill="#3FA7C4"/><path d="M520.38 120.74V62.99H536.51V120.74ZM528.42 55.72Q524.43 55.72 521.8 53.29Q519.18 50.85 519.18 47.13Q519.18 43.41 521.8 40.98Q524.43 38.55 528.36 38.55Q532.36 38.55 534.98 40.98Q537.61 43.41 537.61 47.13Q537.61 50.85 534.98 53.29Q532.36 55.72 528.42 55.72Z" fill="#3FA7C4"/><path d="M545.09 120.74V62.99H560.62V76.01H559.64Q561.17 71.2 563.96 68.05Q566.74 64.91 570.41 63.35Q574.07 61.79 578.12 61.79Q584.74 61.79 589.6 65.59Q594.47 69.39 595.51 76.01H593.81Q594.91 71.58 597.7 68.41Q600.49 65.23 604.51 63.51Q608.53 61.79 613.23 61.79Q618.81 61.79 623.21 64.2Q627.61 66.6 630.13 71.22Q632.64 75.84 632.64 82.46V120.74H616.56V85.41Q616.56 80.22 613.75 77.65Q610.93 75.08 606.78 75.08Q603.71 75.08 601.42 76.45Q599.12 77.81 597.89 80.25Q596.66 82.68 596.66 85.96V120.74H581.13V84.98Q581.13 80.49 578.45 77.79Q575.77 75.08 571.5 75.08Q568.66 75.08 566.33 76.42Q564.01 77.76 562.62 80.36Q561.22 82.95 561.22 86.67V120.74Z" fill="#3FA7C4"/><path d="M667.63 122.05Q658.88 122.05 652.4 118.2Q645.92 114.34 642.34 107.51Q638.76 100.67 638.76 91.92Q638.76 83.06 642.39 76.25Q646.03 69.45 652.43 65.56Q658.83 61.68 667.09 61.68Q673.48 61.68 678.68 63.84Q683.87 66 687.65 70.02Q691.42 74.04 693.47 79.51Q695.52 84.98 695.52 91.59V95.91H644.5V85.63H687.76L680.48 88.09Q680.48 83.72 678.9 80.55Q677.31 77.38 674.39 75.65Q671.46 73.93 667.41 73.93Q663.42 73.93 660.52 75.65Q657.62 77.38 656.04 80.55Q654.45 83.72 654.45 88.09V95.09Q654.45 99.58 656.07 102.94Q657.68 106.3 660.74 108.14Q663.8 109.97 668.12 109.97Q671.3 109.97 673.73 109.07Q676.16 108.16 677.83 106.5Q679.5 104.83 680.21 102.59H694.92Q693.88 108.33 690.05 112.7Q686.23 117.08 680.43 119.57Q674.63 122.05 667.63 122.05Z" fill="#3FA7C4"/></g></g></svg>