<svg xmlns="http://www.w3.org/2000/svg" viewBox="126.33 13.26 662.85 133.48" width="663" height="133" role="img" aria-label="DATAnime"><style>@keyframes dataF{0.000%{opacity:0;transform:translateY(10px);animation-timing-function:cubic-bezier(.22,1,.36,1)}18.182%{opacity:1;transform:translateY(0)}100.000%{opacity:1;transform:translateY(0)}}@keyframes dataX{0.000%{transform:translateX(-53.67px)}40.260%{transform:translateX(-53.67px);animation-timing-function:cubic-bezier(.65,0,.35,1)}59.740%{transform:translateX(0.00px)}100.000%{transform:translateX(0.00px)}}@keyframes animeF{0.000%{opacity:0}16.883%{opacity:0;animation-timing-function:cubic-bezier(.22,1,.36,1)}32.468%{opacity:1}100.000%{opacity:1}}@keyframes animeX{0.000%{transform:translateX(133.67px)}16.883%{transform:translateX(133.67px);animation-timing-function:cubic-bezier(.22,1,.36,1)}35.065%{transform:translateX(53.67px)}40.260%{transform:translateX(53.67px);animation-timing-function:cubic-bezier(.65,0,.35,1)}59.740%{transform:translateX(0.00px)}100.000%{transform:translateX(0.00px)}}@keyframes a1{0.000%{fill:#FFFFFF}61.818%{fill:#FFFFFF;animation-timing-function:cubic-bezier(.65,0,.35,1)}72.208%{fill:#FFD000}100.000%{fill:#FFD000}}@keyframes a2{0.000%{opacity:1}59.740%{opacity:1;animation-timing-function:steps(1,end)}60.000%{opacity:0}100.000%{opacity:0}}@keyframes eye{0.000%{transform:translate(434.686px,77.847px) rotate(0.000deg) scale(22.0938,35.0000);animation-timing-function:linear}74.805%{transform:translate(434.686px,77.847px) rotate(0.000deg) scale(22.0938,35.0000);animation-timing-function:linear}75.455%{transform:translate(434.686px,77.847px) rotate(0.008deg) scale(22.0929,34.9975);animation-timing-function:linear}76.104%{transform:translate(434.685px,77.848px) rotate(0.062deg) scale(22.0869,34.9799);animation-timing-function:linear}76.753%{transform:translate(434.683px,77.850px) rotate(0.208deg) scale(22.0705,34.9323);animation-timing-function:linear}77.403%{transform:translate(434.681px,77.855px) rotate(0.494deg) scale(22.0387,34.8395);animation-timing-function:linear}78.052%{transform:translate(434.676px,77.863px) rotate(0.965deg) scale(21.9863,34.6869);animation-timing-function:linear}78.701%{transform:translate(434.668px,77.875px) rotate(1.667deg) scale(21.9083,34.4599);animation-timing-function:linear}79.351%{transform:translate(434.658px,77.892px) rotate(2.647deg) scale(21.7998,34.1445);animation-timing-function:linear}80.000%{transform:translate(434.645px,77.915px) rotate(3.951deg) scale(21.6561,33.7275);animation-timing-function:linear}80.649%{transform:translate(434.628px,77.944px) rotate(5.625deg) scale(21.4731,33.1970);animation-timing-function:linear}81.299%{transform:translate(434.606px,77.980px) rotate(7.716deg) scale(21.2477,32.5432);animation-timing-function:linear}81.948%{transform:translate(434.580px,78.024px) rotate(10.270deg) scale(20.9779,31.7592);animation-timing-function:linear}82.597%{transform:translate(434.548px,78.076px) rotate(13.333deg) scale(20.6644,30.8426);animation-timing-function:linear}83.247%{transform:translate(434.511px,78.139px) rotate(16.952deg) scale(20.3111,29.7966);animation-timing-function:linear}83.896%{transform:translate(434.467px,78.211px) rotate(21.173deg) scale(19.9267,28.6316);animation-timing-function:linear}84.545%{transform:translate(434.417px,78.295px) rotate(26.042deg) scale(19.5262,27.3668);animation-timing-function:linear}85.195%{transform:translate(434.359px,78.391px) rotate(31.605deg) scale(19.1321,26.0294);animation-timing-function:linear}85.844%{transform:translate(434.294px,78.499px) rotate(37.909deg) scale(18.7749,24.6534);animation-timing-function:linear}86.494%{transform:translate(434.221px,78.622px) rotate(45.000deg) scale(18.4922,23.2740);animation-timing-function:linear}87.143%{transform:translate(434.148px,78.744px) rotate(52.091deg) scale(18.3347,22.0522);animation-timing-function:linear}87.792%{transform:translate(434.082px,78.852px) rotate(58.395deg) scale(18.2934,21.0738);animation-timing-function:linear}88.442%{transform:translate(434.025px,78.948px) rotate(63.958deg) scale(18.3256,20.2730);animation-timing-function:linear}89.091%{transform:translate(433.975px,79.032px) rotate(68.827deg) scale(18.3989,19.6045);animation-timing-function:linear}89.740%{transform:translate(433.931px,79.104px) rotate(73.048deg) scale(18.4904,19.0385);animation-timing-function:linear}90.390%{transform:translate(433.894px,79.167px) rotate(76.667deg) scale(18.5850,18.5562);animation-timing-function:linear}91.039%{transform:translate(433.862px,79.219px) rotate(79.730deg) scale(18.6740,18.1461);animation-timing-function:linear}91.688%{transform:translate(433.836px,79.263px) rotate(82.284deg) scale(18.7526,17.8006);animation-timing-function:linear}92.338%{transform:translate(433.814px,79.299px) rotate(84.375deg) scale(18.8189,17.5140);animation-timing-function:linear}92.987%{transform:translate(433.797px,79.328px) rotate(86.049deg) scale(18.8728,17.2815);animation-timing-function:linear}93.636%{transform:translate(433.783px,79.351px) rotate(87.353deg) scale(18.9149,17.0983);animation-timing-function:linear}94.286%{transform:translate(433.773px,79.368px) rotate(88.333deg) scale(18.9465,16.9593);animation-timing-function:linear}94.935%{transform:translate(433.766px,79.380px) rotate(89.035deg) scale(18.9691,16.8590);animation-timing-function:linear}95.584%{transform:translate(433.761px,79.388px) rotate(89.506deg) scale(18.9842,16.7913);animation-timing-function:linear}96.234%{transform:translate(433.758px,79.393px) rotate(89.792deg) scale(18.9933,16.7501);animation-timing-function:linear}96.883%{transform:translate(433.757px,79.395px) rotate(89.938deg) scale(18.9980,16.7289);animation-timing-function:linear}97.532%{transform:translate(433.756px,79.396px) rotate(89.992deg) scale(18.9998,16.7211);animation-timing-function:linear}98.182%{transform:translate(433.756px,79.396px) rotate(90.000deg) scale(19.0000,16.7200);animation-timing-function:linear}100.000%{transform:translate(433.756px,79.396px) rotate(90.000deg) scale(19.0000,16.7200)}}.dataF{animation:dataF 3.85s linear both}.dataX{animation:dataX 3.85s linear both}.animeF{animation:animeF 3.85s linear both}.animeX{animation:animeX 3.85s linear both}.a1{fill:#FFD000;animation:a1 3.85s linear both}.a2{fill:#3FA7C4;opacity:0;animation:a2 3.85s linear both}.eye{transform:translate(433.756px,79.396px) rotate(90.000deg) scale(19.0000,16.7200);animation:eye 3.85s linear both}@media (prefers-reduced-motion:reduce){.dataF,.dataX,.animeF,.animeX,.a1,.a2,.eye{animation:none}}</style><defs><mask id="eye1dark" maskUnits="userSpaceOnUse" x="-73.7" y="13.3" width="1062.9" height="133.5"><rect x="-73.7" y="13.3" width="1062.9" height="133.5" fill="#fff"/><path d="M-0.43000 0.33333L-0.44299 0.33271L-0.45395 0.33083L-0.46288 0.32770L-0.46979 0.32332L-0.47467 0.31768L-0.47753 0.31079L-0.47836 0.30265L-0.47716 0.29326L-0.47394 0.28262L-0.46870 0.27072L-0.03130 -0.60406L-0.02504 -0.61533L-0.01878 -0.62409L-0.01252 -0.63035L-0.00626 -0.63411L0.00000 -0.63536L0.00626 -0.63411L0.01252 -0.63035L0.01878 -0.62409L0.02504 -0.61533L0.03130 -0.60406L0.46870 0.27072L0.47394 0.28262L0.47716 0.29326L0.47836 0.30265L0.47753 0.31079L0.47467 0.31768L0.46979 0.32332L0.46288 0.32770L0.45395 0.33083L0.44299 0.33271L0.43000 0.33333Z" fill="#000" class="eye"/></mask><mask id="eye2dark" maskUnits="userSpaceOnUse" x="-73.7" y="13.3" width="1062.9" height="133.5"><rect x="-73.7" y="13.3" width="1062.9" height="133.5" fill="#fff"/><path d="M-0.43000 0.33333L-0.44299 0.33271L-0.45395 0.33083L-0.46288 0.32770L-0.46979 0.32332L-0.47467 0.31768L-0.47753 0.31079L-0.47836 0.30265L-0.47716 0.29326L-0.47394 0.28262L-0.46870 0.27072L-0.03130 -0.60406L-0.02504 -0.61533L-0.01878 -0.62409L-0.01252 -0.63035L-0.00626 -0.63411L0.00000 -0.63536L0.00626 -0.63411L0.01252 -0.63035L0.01878 -0.62409L0.02504 -0.61533L0.03130 -0.60406L0.46870 0.27072L0.47394 0.28262L0.47716 0.29326L0.47836 0.30265L0.47753 0.31079L0.47467 0.31768L0.46979 0.32332L0.46288 0.32770L0.45395 0.33083L0.44299 0.33271L0.43000 0.33333Z" fill="#000" style="transform:translate(434.686px,77.847px) rotate(0.000deg) scale(22.0938,35.0000)"/></mask></defs><g class="animeF"><g class="animeX"><path class="a2" d="M395.31 120.74L423.91 39.26L445.57 39.26L474.17 120.74L455.52 120.74L449.79 102.97L419.4 102.97L413.47 120.74Z" mask="url(#eye2dark)"/><path d="M493.73 88.64V120.74H477.6V62.99H493.46V78.03H490.73Q493.46 70.38 498.55 66.08Q503.63 61.79 511.51 61.79Q517.69 61.79 522.23 64.44Q526.76 67.09 529.25 72.18Q531.74 77.27 531.74 84.59V120.74H515.66V87.55Q515.66 81.7 512.9 78.69Q510.14 75.68 505.05 75.68Q501.72 75.68 499.15 77.05Q496.58 78.41 495.15 81.29Q493.73 84.16 493.73 88.64Z" fill="#3FA7C4"/><path d="M540.37 120.74V62.99H556.5V120.74ZM548.41 55.72Q544.42 55.72 541.79 53.29Q539.17 50.85 539.17 47.13Q539.17 43.41 541.79 40.98Q544.42 38.55 548.35 38.55Q552.35 38.55 554.97 40.98Q557.6 43.41 557.6 47.13Q557.6 50.85 554.97 53.29Q552.35 55.72 548.41 55.72Z" fill="#3FA7C4"/><path d="M565.08 120.74V62.99H580.61V76.01H579.63Q581.16 71.2 583.95 68.05Q586.73 64.91 590.4 63.35Q594.06 61.79 598.11 61.79Q604.73 61.79 609.59 65.59Q614.46 69.39 615.5 76.01H613.8Q614.9 71.58 617.69 68.41Q620.48 65.23 624.5 63.51Q628.52 61.79 633.22 61.79Q638.8 61.79 643.2 64.2Q647.6 66.6 650.12 71.22Q652.63 75.84 652.63 82.46V120.74H636.55V85.41Q636.55 80.22 633.74 77.65Q630.92 75.08 626.77 75.08Q623.7 75.08 621.41 76.45Q619.11 77.81 617.88 80.25Q616.65 82.68 616.65 85.96V120.74H601.12V84.98Q601.12 80.49 598.44 77.79Q595.76 75.08 591.49 75.08Q588.65 75.08 586.32 76.42Q584 77.76 582.61 80.36Q581.21 82.95 581.21 86.67V120.74Z" fill="#3FA7C4"/><path d="M687.62 122.05Q678.87 122.05 672.39 118.2Q665.91 114.34 662.33 107.51Q658.75 100.67 658.75 91.92Q658.75 83.06 662.38 76.25Q666.02 69.45 672.42 65.56Q678.82 61.68 687.08 61.68Q693.47 61.68 698.67 63.84Q703.86 66 707.64 70.02Q711.41 74.04 713.46 79.51Q715.51 84.98 715.51 91.59V95.91H664.49V85.63H707.75L700.47 88.09Q700.47 83.72 698.89 80.55Q697.3 77.38 694.38 75.65Q691.45 73.93 687.4 73.93Q683.41 73.93 680.51 75.65Q677.61 77.38 676.03 80.55Q674.44 83.72 674.44 88.09V95.09Q674.44 99.58 676.06 102.94Q677.67 106.3 680.73 108.14Q683.79 109.97 688.11 109.97Q691.29 109.97 693.72 109.07Q696.15 108.16 697.82 106.5Q699.49 104.83 700.2 102.59H714.91Q713.87 108.33 710.04 112.7Q706.22 117.08 700.42 119.57Q694.62 122.05 687.62 122.05Z" fill="#3FA7C4"/></g></g><g class="dataF"><g class="dataX"><path d="M234.84 120.74H213.78V106.58H233.96Q242.16 106.58 247.52 103.49Q252.88 100.4 255.51 94.46Q258.13 88.53 258.13 79.94Q258.13 71.36 255.51 65.45Q252.88 59.54 247.55 56.48Q242.22 53.42 234.12 53.42H213.4V39.26H235.16Q247.41 39.26 256.38 44.2Q265.35 49.15 270.22 58.29Q275.09 67.42 275.09 79.94Q275.09 92.47 270.22 101.63Q265.35 110.79 256.36 115.76Q247.36 120.74 234.84 120.74ZM222.91 39.26V120.74H206.07V39.26Z" fill="#FFFFFF"/><path d="M271.74 120.74 300.34 39.26H322L350.6 120.74H331.95L319.15 81.09Q316.8 73.27 314.31 64.99Q311.82 56.7 308.93 46.15H313.57Q310.57 56.7 308.08 64.99Q305.59 73.27 303.13 81.09L289.89 120.74ZM289.89 102.97V89.51H332.5V102.97Z" fill="#FFFFFF"/><path d="M339.87 53.69V39.26H406.09V53.69H381.43V120.74H364.59V53.69Z" fill="#FFFFFF"/><path class="a1" d="M395.31 120.74L423.91 39.26L445.57 39.26L474.17 120.74L455.52 120.74L449.79 102.97L419.4 102.97L413.47 120.74Z" mask="url(#eye1dark)"/></g></g></svg>